<svg xmlns="http://www.w3.org/2000/svg" xmlns:xlink="http://www.w3.org/1999/xlink" aria-hidden="true" role="img" class="iconify iconify--logos" width="35.93" height="32" preserveAspectRatio="xMidYMid meet" viewBox="0 0 256 228"><path fill="#61DAFB" d="M210.483 73.824a171.49 171.49 0 0 0-8.24-2.597c.465-1.9.893-3.777 1.273-5.621c2.46-11.891 3.983-23.42 3.983-33.079c0-5.217-1.267-10.204-3.627-14.582c-2.19-4.056-5.35-7.56-9.236-10.216c-3.76-2.557-8.37-4.418-13.517-5.316c-3.907-.688-8.092-1.062-12.376-1.062c-4.944 0-9.769.475-14.351 1.34c-5.821 1.102-10.993 3.204-15.304 6.168c-3.823 2.629-6.959 6.088-9.235 10.118c-2.116 3.745-3.232 8.044-3.232 12.479c0 8.521 1.743 18.52 4.895 28.133c3.268 9.985 7.828 20.46 13.594 31.266c-3.28 1.707-6.445 3.439-9.474 5.192c-4.458 2.582-8.76 5.185-12.834 7.761c-4.412 2.787-8.513 5.623-12.201 8.42c-3.354 2.533-6.355 5.188-8.932 7.905c-2.557 2.692-4.608 5.422-6.112 8.139c-1.567 2.834-2.423 5.787-2.423 8.831c0 .296.014.592.04.883a44.055 44.055 0 0 0 3.228 13.262c1.856 4.48 4.474 8.476 7.794 11.852c3.216 3.292 7.076 5.884 11.477 7.705c4.203 1.737 8.891 2.631 13.921 2.631c4.504 0 8.683-.767 12.409-2.27c3.611-1.457 6.71-3.5 9.2-6.054c2.35-2.417 4.187-5.224 5.465-8.36a44.62 44.62 0 0 0 1.922-9.412c.168-.954.297-1.925.39-2.911c.094-.977.17-1.968.236-2.977c.12-1.846.209-3.75.264-5.679c.04-1.396.062-2.823.062-4.273c0-4.662-.398-9.46-1.164-14.15zM87.276 128.085c-6.855-10.29-13.96-21.16-21.267-32.547c2.215-5.849 4.131-11.506 5.753-16.963c2.078-6.983 3.612-14.139 4.511-21.134c.52-4.058.77-7.967.77-11.698c0-2.213-.188-4.378-.558-6.46a43.711 43.711 0 0 0-3.958-14.756c-1.48-3.475-3.315-6.66-5.46-9.474c-2.033-2.671-4.444-5.047-7.176-7.072c-2.538-1.881-5.418-3.315-8.559-4.26c-3.014-.907-6.348-1.37-9.924-1.37c-3.405 0-6.784.447-10.032 1.327a42.281 42.281 0 0 0-8.233 3.727a43.681 43.681 0 0 0-6.498 5.947a44.314 44.314 0 0 0-4.532 7.437a44.153 44.153 0 0 0-2.61 8.337a42.726 42.726 0 0 0-.803 8.89a42.544 42.544 0 0 0 .56 8.769c.69 4.477 1.86 8.93 3.503 13.303c1.665 4.435 3.766 8.885 6.274 13.282c2.545 4.474 5.457 8.924 8.687 13.293c3.308 4.488 6.897 8.958 10.709 13.351c3.783 4.367 7.786 8.735 11.944 13.037c4.116 4.265 8.421 8.514 12.833 12.674c4.375 4.121 8.868 8.216 13.399 12.218c4.496 3.968 9.107 7.889 13.765 11.693c4.603 3.767 9.323 7.466 14.089 11.035c-6.644-10.969-12.888-22.09-18.686-33.238c-5.847-11.239-11.174-22.58-15.936-33.899z"></path><path fill="#61DAFB" d="M107.135 8.867c-4.213-1.01-8.593-1.556-13.074-1.556c-5.152 0-9.962.639-14.332 1.9c-3.782 1.091-7.1 2.667-9.867 4.671c-2.635 1.907-4.765 4.3-6.343 7.102c-1.516 2.69-2.399 5.75-2.399 9.063c0 .278.014.555.04.83a44.113 44.113 0 0 0 3.229 13.266c1.855 4.48 4.473 8.476 7.794 11.852c3.217 3.292 7.077 5.884 11.478 7.705c4.203 1.737 8.89 2.631 13.921 2.631c4.504 0 8.683-.768 12.409-2.27c3.611-1.457 6.71-3.5 9.2-6.054c2.349-2.417 4.186-5.224 5.464-8.36a44.626 44.626 0 0 0 1.923-9.413c.167-.953.296-1.924.389-2.91c.094-.977.17-1.968.236-2.978c.12-1.845.209-3.749.264-5.678c.04-1.397.062-2.824.062-4.274c0-4.105-.34-8.263-1.027-12.373zM87.276 128.085c-6.855-10.29-13.96-21.16-21.267-32.547c2.215-5.849 4.131-11.506 5.753-16.963c2.078-6.983 3.612-14.139 4.511-21.134c.52-4.058.77-7.967.77-11.698c0-2.213-.188-4.378-.558-6.46a43.711 43.711 0 0 0-3.958-14.756c-1.48-3.475-3.315-6.66-5.46-9.474c-2.033-2.671-4.444-5.047-7.176-7.072c-2.538-1.881-5.418-3.315-8.559-4.26c-3.014-.907-6.348-1.37-9.924-1.37c-3.405 0-6.784.447-10.032 1.327a42.281 42.281 0 0 0-8.233 3.727a43.681 43.681 0 0 0-6.498 5.947a44.314 44.314 0 0 0-4.532 7.437a44.153 44.153 0 0 0-2.61 8.337a42.726 42.726 0 0 0-.803 8.89a42.544 42.544 0 0 0 .56 8.769c.69 4.477 1.86 8.93 3.503 13.303c1.665 4.435 3.766 8.885 6.274 13.282c2.545 4.474 5.457 8.924 8.687 13.293c3.308 4.488 6.897 8.958 10.709 13.351c3.783 4.367 7.786 8.735 11.944 13.037c4.116 4.265 8.421 8.514 12.833 12.674c4.375 4.121 8.868 8.216 13.399 12.218c4.496 3.968 9.107 7.889 13.765 11.693c4.603 3.767 9.323 7.466 14.089 11.035c-6.644-10.969-12.888-22.09-18.686-33.238c-5.847-11.239-11.174-22.58-15.936-33.899z"></path></svg>
